<svg xmlns="http://www.w3.org/2000/svg" viewBox="0 0 900 620" role="img" aria-labelledby="title desc">
  <title id="title">Yol yardım ekibi</title>
  <desc id="desc">Yolda kalan bir araca yardım eden oto kurtarma ekibi.</desc>
  <defs>
    <linearGradient id="bg" x1="0" x2="1" y1="0" y2="1">
      <stop offset="0" stop-color="#f9f4e8"/>
      <stop offset=".55" stop-color="#d7edf1"/>
      <stop offset="1" stop-color="#ffc531"/>
    </linearGradient>
    <filter id="shadow" x="-20%" y="-20%" width="140%" height="160%">
      <feDropShadow dx="0" dy="20" stdDeviation="16" flood-color="#111a24" flood-opacity=".22"/>
    </filter>
  </defs>
  <rect width="900" height="620" rx="28" fill="url(#bg)"/>
  <path d="M0 440c160-68 298-60 440-22 153 42 278 25 460-38v240H0z" fill="#172433" opacity=".12"/>
  <path d="M80 500h740" stroke="#172433" stroke-width="18" stroke-linecap="round" opacity=".15"/>
  <path d="M105 531h690" stroke="#172433" stroke-width="24" stroke-linecap="round" opacity=".09"/>
  <g opacity=".5">
    <rect x="80" y="105" width="100" height="80" rx="12" fill="#fff"/>
    <rect x="707" y="120" width="96" height="92" rx="12" fill="#fff"/>
    <rect x="660" y="252" width="74" height="60" rx="12" fill="#fff"/>
  </g>
  <g filter="url(#shadow)">
    <path d="M135 413l45-66c10-14 26-22 43-22h118c21 0 40 11 51 29l36 60 34 8c20 5 34 23 34 44v18H104v-34c0-16 12-31 31-37z" fill="#118577"/>
    <path d="M202 354h72v58H167l28-45c3-7 4-13 7-13z" fill="#d8f2f7"/>
    <path d="M296 354h44c12 0 23 7 29 17l25 41h-98z" fill="#d8f2f7"/>
    <circle cx="199" cy="487" r="48" fill="#111a24"/>
    <circle cx="199" cy="487" r="22" fill="#f9f4e8"/>
    <circle cx="396" cy="487" r="48" fill="#111a24"/>
    <circle cx="396" cy="487" r="22" fill="#f9f4e8"/>
    <rect x="112" y="429" width="42" height="17" rx="7" fill="#ffc531"/>
  </g>
  <g filter="url(#shadow)">
    <path d="M596 280h116c30 0 58 18 70 46l33 78h20c22 0 40 18 40 40v42H565V316c0-20 12-36 31-36z" fill="#d92432"/>
    <path d="M622 310h84c17 0 33 10 40 26l21 47H622z" fill="#d8f2f7"/>
    <circle cx="646" cy="488" r="46" fill="#111a24"/>
    <circle cx="646" cy="488" r="21" fill="#f9f4e8"/>
    <circle cx="815" cy="488" r="46" fill="#111a24"/>
    <circle cx="815" cy="488" r="21" fill="#f9f4e8"/>
  </g>
  <g filter="url(#shadow)">
    <circle cx="520" cy="382" r="28" fill="#ffc531"/>
    <path d="M505 414h34l12 86h-58z" fill="#172433"/>
    <path d="M510 440l-50 40" stroke="#172433" stroke-width="16" stroke-linecap="round"/>
    <path d="M540 440l40 37" stroke="#172433" stroke-width="16" stroke-linecap="round"/>
    <path d="M493 500h88" stroke="#172433" stroke-width="18" stroke-linecap="round"/>
  </g>
</svg>
