<svg xmlns="http://www.w3.org/2000/svg" viewBox="0 0 900 620" role="img" aria-labelledby="title desc">
  <title id="title">Kayar kasa oto çekici</title>
  <desc id="desc">Kayar kasa çekici ile güvenli araç taşıma sahnesi.</desc>
  <defs>
    <linearGradient id="bg" x1="0" x2="1" y1="0" y2="1">
      <stop offset="0" stop-color="#f7f2e8"/>
      <stop offset=".54" stop-color="#ffffff"/>
      <stop offset="1" stop-color="#c8d8ec"/>
    </linearGradient>
    <linearGradient id="red" x1="0" x2="1">
      <stop offset="0" stop-color="#ef454b"/>
      <stop offset="1" stop-color="#b81725"/>
    </linearGradient>
    <filter id="shadow" x="-20%" y="-20%" width="140%" height="160%">
      <feDropShadow dx="0" dy="20" stdDeviation="18" flood-color="#111a24" flood-opacity=".24"/>
    </filter>
  </defs>
  <rect width="900" height="620" rx="28" fill="url(#bg)"/>
  <path d="M50 500h800" stroke="#172433" stroke-width="18" stroke-linecap="round" opacity=".13"/>
  <path d="M110 535h680" stroke="#172433" stroke-width="22" stroke-linecap="round" opacity=".08"/>
  <g opacity=".48">
    <rect x="83" y="116" width="110" height="74" rx="12" fill="#fff"/>
    <rect x="720" y="92" width="90" height="108" rx="12" fill="#fff"/>
    <rect x="618" y="222" width="80" height="64" rx="12" fill="#fff"/>
  </g>
  <g filter="url(#shadow)">
    <path d="M142 375l396-78 66 44-414 97c-52 12-75-51-48-63z" fill="#172433"/>
    <path d="M212 369l322-62 38 24-342 78c-31 7-48-31-18-40z" fill="#ffc531"/>
    <path d="M585 248h106c31 0 58 18 71 46l42 91h47c23 0 41 18 41 41v52H534V300c0-29 23-52 51-52z" fill="url(#red)"/>
    <path d="M613 280h78c18 0 34 10 42 27l26 56H613z" fill="#d8f2f7"/>
    <rect x="808" y="420" width="48" height="22" rx="8" fill="#ffc531"/>
    <circle cx="623" cy="483" r="58" fill="#111a24"/>
    <circle cx="623" cy="483" r="26" fill="#f7f2e8"/>
    <circle cx="820" cy="483" r="58" fill="#111a24"/>
    <circle cx="820" cy="483" r="26" fill="#f7f2e8"/>
  </g>
  <g filter="url(#shadow)">
    <path d="M142 356l40-58c9-13 24-21 40-21h92c17 0 33 9 42 24l31 52 27 7c17 4 28 19 28 36v19H123v-26c0-15 7-26 19-33z" fill="#118577"/>
    <path d="M197 303h54v48h-88l24-36c3-7 6-12 10-12z" fill="#d8f2f7"/>
    <path d="M269 303h42c9 0 17 5 22 13l21 35h-85z" fill="#d8f2f7"/>
    <circle cx="199" cy="415" r="43" fill="#111a24"/>
    <circle cx="199" cy="415" r="20" fill="#f7f2e8"/>
    <circle cx="361" cy="415" r="43" fill="#111a24"/>
    <circle cx="361" cy="415" r="20" fill="#f7f2e8"/>
  </g>
  <path d="M208 365c54 24 128 22 216-5" fill="none" stroke="#0e655d" stroke-width="8" stroke-linecap="round" opacity=".48"/>
</svg>
