<svg xmlns="http://www.w3.org/2000/svg" viewBox="0 0 900 560" role="img" aria-labelledby="title desc">
  <title id="title">Oto çekici</title>
  <desc id="desc">Bir aracı taşıyan kırmızı ve sarı oto çekici illüstrasyonu.</desc>
  <defs>
    <linearGradient id="sky" x1="0" x2="1" y1="0" y2="1">
      <stop offset="0" stop-color="#fdfbf6"/>
      <stop offset="1" stop-color="#eadfcf"/>
    </linearGradient>
    <linearGradient id="red" x1="0" x2="1">
      <stop offset="0" stop-color="#ee4747"/>
      <stop offset="1" stop-color="#b51f2b"/>
    </linearGradient>
    <linearGradient id="yellow" x1="0" x2="1">
      <stop offset="0" stop-color="#ffd34d"/>
      <stop offset="1" stop-color="#e59b00"/>
    </linearGradient>
    <filter id="shadow" x="-20%" y="-20%" width="140%" height="160%">
      <feDropShadow dx="0" dy="18" stdDeviation="16" flood-color="#18222d" flood-opacity=".22"/>
    </filter>
  </defs>

  <rect width="900" height="560" rx="26" fill="url(#sky)"/>
  <path d="M62 419h776" stroke="#cfbfab" stroke-width="14" stroke-linecap="round"/>
  <path d="M104 451h692" stroke="#18222d" stroke-width="18" stroke-linecap="round" opacity=".12"/>

  <g opacity=".48">
    <rect x="88" y="96" width="112" height="74" rx="10" fill="#fff"/>
    <rect x="690" y="82" width="92" height="92" rx="10" fill="#fff"/>
    <rect x="740" y="202" width="86" height="58" rx="10" fill="#fff"/>
    <rect x="132" y="235" width="74" height="46" rx="10" fill="#fff"/>
  </g>

  <g filter="url(#shadow)">
    <path d="M138 337l348-68 52 35-356 82c-43 10-61-39-44-49z" fill="#243447"/>
    <path d="M209 328l279-54 26 18-293 66c-26 6-39-23-12-30z" fill="url(#yellow)"/>

    <path d="M493 205h110c27 0 52 15 64 39l45 87h52c22 0 40 18 40 40v37H451V247c0-23 19-42 42-42z" fill="url(#red)"/>
    <path d="M516 232h78c17 0 31 9 39 24l28 54H516z" fill="#d9eef4"/>
    <path d="M670 331h96c18 0 32 14 32 32v45H670z" fill="#d83232"/>
    <path d="M452 323h-66l-34 85h100z" fill="#1b2633"/>
    <path d="M371 234h153v32H371z" fill="#243447"/>
    <path d="M328 178h52v58h-52z" fill="#243447"/>
    <path d="M250 171h118v28H250z" fill="#243447"/>
    <path d="M254 183l-77 139" stroke="#243447" stroke-width="14" stroke-linecap="round"/>
    <circle cx="533" cy="409" r="55" fill="#18222d"/>
    <circle cx="533" cy="409" r="26" fill="#f6f3ed"/>
    <circle cx="735" cy="409" r="55" fill="#18222d"/>
    <circle cx="735" cy="409" r="26" fill="#f6f3ed"/>
    <path d="M504 331h151" stroke="#8f1721" stroke-width="8" stroke-linecap="round"/>
    <rect x="760" y="356" width="34" height="18" rx="6" fill="#ffd34d"/>
  </g>

  <g filter="url(#shadow)">
    <path d="M124 348l40-58c9-13 24-21 40-21h92c17 0 33 9 42 24l31 52 27 7c17 4 28 19 28 36v19H105v-26c0-15 7-26 19-33z" fill="#128277"/>
    <path d="M179 295h54v48h-88l24-36c3-7 6-12 10-12z" fill="#d9eef4"/>
    <path d="M251 295h42c9 0 17 5 22 13l21 35h-85z" fill="#d9eef4"/>
    <circle cx="181" cy="407" r="43" fill="#18222d"/>
    <circle cx="181" cy="407" r="20" fill="#f6f3ed"/>
    <circle cx="343" cy="407" r="43" fill="#18222d"/>
    <circle cx="343" cy="407" r="20" fill="#f6f3ed"/>
    <rect x="112" y="363" width="36" height="15" rx="6" fill="#ffd34d"/>
  </g>

  <path d="M178 322c14 16 44 23 88 21 36-2 68 5 94 20" fill="none" stroke="#0e655d" stroke-width="7" stroke-linecap="round" opacity=".46"/>
</svg>
